<?xml version="1.0" encoding="utf-8"?>
<svg xmlns="http://www.w3.org/2000/svg" viewBox="655.697 98.33 50.25 50" width="50.25px" height="50px">
  <path d="M 673.947 148.33 L 672.947 140.33 C 672.406 140.122 671.895 139.872 671.416 139.58 C 670.937 139.288 670.468 138.976 670.01 138.643 L 662.572 141.768 L 655.697 129.893 L 662.135 125.018 C 662.093 124.726 662.072 124.445 662.072 124.174 L 662.072 122.486 C 662.072 122.216 662.093 121.934 662.135 121.643 L 655.697 116.768 L 662.572 104.893 L 670.01 108.018 C 670.468 107.684 670.947 107.372 671.447 107.08 C 671.947 106.788 672.447 106.538 672.947 106.33 L 673.947 98.33 L 687.697 98.33 L 688.697 106.33 C 689.239 106.538 689.75 106.788 690.229 107.08 C 690.708 107.372 691.177 107.684 691.635 108.018 L 699.072 104.893 L 705.947 116.768 L 699.51 121.643 C 699.552 121.934 699.572 122.216 699.572 122.486 L 699.572 124.174 C 699.572 124.445 699.531 124.726 699.447 125.018 L 705.885 129.893 L 699.01 141.768 L 691.635 138.643 C 691.177 138.976 690.697 139.288 690.197 139.58 C 689.697 139.872 689.197 140.122 688.697 140.33 L 687.697 148.33 L 673.947 148.33 Z M 680.947 132.08 C 683.364 132.08 685.427 131.226 687.135 129.518 C 688.843 127.809 689.697 125.747 689.697 123.33 C 689.697 120.913 688.843 118.851 687.135 117.143 C 685.427 115.434 683.364 114.58 680.947 114.58 C 678.489 114.58 676.416 115.434 674.729 117.143 C 673.041 118.851 672.197 120.913 672.197 123.33 C 672.197 125.747 673.041 127.809 674.729 129.518 C 676.416 131.226 678.489 132.08 680.947 132.08 Z" fill="hsl(224 0% 95%)" style="stroke-width: 1;" transform="matrix(1, 0, 0, 1, 0, -3.552713678800501e-15)"/>
</svg>