<?xml version="1.0" encoding="utf-8"?>
<svg xmlns="http://www.w3.org/2000/svg" viewBox="647.206 125.485 50 50" width="50px" height="50px">
  <path d="M 656.831 163.235 C 658.956 161.61 661.331 160.328 663.956 159.391 C 666.581 158.453 669.331 157.985 672.206 157.985 C 675.081 157.985 677.831 158.453 680.456 159.391 C 683.081 160.328 685.456 161.61 687.581 163.235 C 689.039 161.526 690.174 159.589 690.987 157.422 C 691.799 155.255 692.206 152.943 692.206 150.485 C 692.206 144.943 690.258 140.224 686.362 136.328 C 682.466 132.432 677.747 130.485 672.206 130.485 C 666.664 130.485 661.945 132.432 658.049 136.328 C 654.153 140.224 652.206 144.943 652.206 150.485 C 652.206 152.943 652.612 155.255 653.424 157.422 C 654.237 159.589 655.372 161.526 656.831 163.235 Z M 672.206 152.985 C 669.747 152.985 667.674 152.141 665.987 150.453 C 664.299 148.766 663.456 146.693 663.456 144.235 C 663.456 141.776 664.299 139.703 665.987 138.016 C 667.674 136.328 669.747 135.485 672.206 135.485 C 674.664 135.485 676.737 136.328 678.424 138.016 C 680.112 139.703 680.956 141.776 680.956 144.235 C 680.956 146.693 680.112 148.766 678.424 150.453 C 676.737 152.141 674.664 152.985 672.206 152.985 Z M 672.206 175.485 C 668.747 175.485 665.497 174.828 662.456 173.516 C 659.414 172.203 656.768 170.422 654.518 168.172 C 652.268 165.922 650.487 163.276 649.174 160.235 C 647.862 157.193 647.206 153.943 647.206 150.485 C 647.206 147.026 647.862 143.776 649.174 140.735 C 650.487 137.693 652.268 135.047 654.518 132.797 C 656.768 130.547 659.414 128.766 662.456 127.453 C 665.497 126.141 668.747 125.485 672.206 125.485 C 675.664 125.485 678.914 126.141 681.956 127.453 C 684.997 128.766 687.643 130.547 689.893 132.797 C 692.143 135.047 693.924 137.693 695.237 140.735 C 696.549 143.776 697.206 147.026 697.206 150.485 C 697.206 153.943 696.549 157.193 695.237 160.235 C 693.924 163.276 692.143 165.922 689.893 168.172 C 687.643 170.422 684.997 172.203 681.956 173.516 C 678.914 174.828 675.664 175.485 672.206 175.485 Z" fill="hsl(224 0% 95%)" style="stroke-width: 1;" transform="matrix(1, 0, 0, 1, 0, 1.4210854715202004e-14)"/>
</svg>