<?xml version="1.0" encoding="utf-8"?>
<svg xmlns="http://www.w3.org/2000/svg" viewBox="639.858 78.884 18 18" width="18px" height="18px">
  <path d="M 656.458 96.884 L 650.158 90.584 C 649.658 90.984 649.083 91.301 648.433 91.534 C 647.783 91.767 647.091 91.884 646.358 91.884 C 644.541 91.884 643.003 91.255 641.745 89.997 C 640.487 88.738 639.858 87.201 639.858 85.384 C 639.858 83.567 640.487 82.03 641.745 80.772 C 643.003 79.513 644.541 78.884 646.358 78.884 C 648.174 78.884 649.712 79.513 650.97 80.772 C 652.228 82.03 652.858 83.567 652.858 85.384 C 652.858 86.117 652.741 86.809 652.508 87.459 C 652.274 88.109 651.958 88.684 651.558 89.184 L 657.858 95.484 L 656.458 96.884 Z M 646.358 89.884 C 647.608 89.884 648.67 89.447 649.545 88.572 C 650.42 87.697 650.858 86.634 650.858 85.384 C 650.858 84.134 650.42 83.072 649.545 82.197 C 648.67 81.322 647.608 80.884 646.358 80.884 C 645.108 80.884 644.045 81.322 643.17 82.197 C 642.295 83.072 641.858 84.134 641.858 85.384 C 641.858 86.634 642.295 87.697 643.17 88.572 C 644.045 89.447 645.108 89.884 646.358 89.884 Z" fill="hsl(224 0% 69%)" style="stroke-width: 1;" transform="matrix(1, 0, 0, 1, 0, -3.552713678800501e-15)"/>
</svg>